<svg width="1440" height="3107" viewBox="0 0 1440 3107" fill="none" xmlns="http://www.w3.org/2000/svg">
<g style="mix-blend-mode:hard-light" opacity="0.5" clip-path="url(#clip0_239_159)">
<path d="M1440 0H0V3107H1440V0Z" fill="#1E1E1E"/>
<g filter="url(#filter0_f_239_159)">
<path d="M851.748 2547.39C1049.05 2547.39 1209 2322.82 1209 2045.8C1209 1768.79 1049.05 1544.22 851.748 1544.22C654.445 1544.22 494.5 1768.79 494.5 2045.8C494.5 2322.82 654.445 2547.39 851.748 2547.39Z" fill="#3CB3FB"/>
<path d="M532.506 2105.17C729.808 2105.17 889.753 1880.6 889.753 1603.58C889.753 1326.57 729.808 1102 532.506 1102C335.203 1102 175.258 1326.57 175.258 1603.58C175.258 1880.6 335.203 2105.17 532.506 2105.17Z" fill="#1E1E1E"/>
<path d="M398.248 3329.17C595.55 3329.17 755.495 3104.6 755.495 2827.58C755.495 2550.57 595.55 2326 398.248 2326C200.945 2326 41 2550.57 41 2827.58C41 3104.6 200.945 3329.17 398.248 3329.17Z" fill="#3CB3FB"/>
<path d="M1434.25 2731.17C1631.55 2731.17 1791.5 2506.6 1791.5 2229.58C1791.5 1952.57 1631.55 1728 1434.25 1728C1236.95 1728 1077 1952.57 1077 2229.58C1077 2506.6 1236.95 2731.17 1434.25 2731.17Z" fill="#3CB3FB"/>
<path d="M217 2021C439.018 2021 619 1828.48 619 1591C619 1353.52 439.018 1161 217 1161C-5.01846 1161 -185 1353.52 -185 1591C-185 1828.48 -5.01846 2021 217 2021Z" fill="#3CB3FB"/>
<path d="M1244 1456C1442.82 1456 1604 1279.6 1604 1062C1604 844.4 1442.82 668 1244 668C1045.18 668 884 844.4 884 1062C884 1279.6 1045.18 1456 1244 1456Z" fill="#3CB3FB"/>
<path d="M360 560C558.823 560 720 383.6 720 166C720 -51.6002 558.823 -228 360 -228C161.178 -228 0 -51.6002 0 166C0 383.6 161.178 560 360 560Z" fill="#3CB3FB"/>
<path d="M619.248 2198.17C816.55 2198.17 976.495 1973.6 976.495 1696.58C976.495 1419.57 816.55 1195 619.248 1195C421.945 1195 262 1419.57 262 1696.58C262 1973.6 421.945 2198.17 619.248 2198.17Z" fill="#1E1E1E"/>
<path d="M661.248 2996.17C858.55 2996.17 1018.5 2771.6 1018.5 2494.58C1018.5 2217.57 858.55 1993 661.248 1993C463.945 1993 304 2217.57 304 2494.58C304 2771.6 463.945 2996.17 661.248 2996.17Z" fill="#1E1E1E"/>
<path d="M1077.25 2372.17C1274.55 2372.17 1434.5 2147.6 1434.5 1870.58C1434.5 1593.57 1274.55 1369 1077.25 1369C879.945 1369 720 1593.57 720 1870.58C720 2147.6 879.945 2372.17 1077.25 2372.17Z" fill="#1E1E1E"/>
<path d="M661.248 1061.17C858.55 1061.17 1018.5 836.6 1018.5 559.583C1018.5 282.567 858.55 58 661.248 58C463.945 58 304 282.567 304 559.583C304 836.6 463.945 1061.17 661.248 1061.17Z" fill="#1E1E1E"/>
<path d="M852.248 1418.17C1049.55 1418.17 1209.5 1193.6 1209.5 916.583C1209.5 639.567 1049.55 415 852.248 415C654.945 415 495 639.567 495 916.583C495 1193.6 654.945 1418.17 852.248 1418.17Z" fill="#1E1E1E"/>
</g>
</g>
<defs>
<filter id="filter0_f_239_159" x="-709" y="-752" width="3024.49" height="4605.17" filterUnits="userSpaceOnUse" color-interpolation-filters="sRGB">
<feFlood flood-opacity="0" result="BackgroundImageFix"/>
<feBlend mode="normal" in="SourceGraphic" in2="BackgroundImageFix" result="shape"/>
<feGaussianBlur stdDeviation="262" result="effect1_foregroundBlur_239_159"/>
</filter>
<clipPath id="clip0_239_159">
<rect width="1440" height="3107" fill="white"/>
</clipPath>
</defs>
</svg>
